<svg width="32" height="32" viewBox="0 0 32 32" fill="none" xmlns="http://www.w3.org/2000/svg">
<rect width="32" height="32" rx="16" fill="#232166" fill-opacity="0.2"/>
<path d="M10.0547 15.6719V14.125C10.0547 13.9219 10.1276 13.75 10.2734 13.6094C10.4193 13.4688 10.5911 13.3984 10.7891 13.3984C10.9974 13.3984 11.1745 13.4688 11.3203 13.6094C11.4661 13.75 11.5391 13.9219 11.5391 14.125V15.6172C11.5391 16.5026 11.724 17.2786 12.0938 17.9453C12.4688 18.6068 12.9922 19.1198 13.6641 19.4844C14.3359 19.849 15.1146 20.0312 16 20.0312C16.8906 20.0312 17.6693 19.849 18.3359 19.4844C19.0026 19.1198 19.5234 18.6068 19.8984 17.9453C20.2734 17.2786 20.4609 16.5026 20.4609 15.6172V14.125C20.4609 13.9219 20.5339 13.75 20.6797 13.6094C20.8255 13.4688 21 13.3984 21.2031 13.3984C21.4062 13.3984 21.5781 13.4688 21.7188 13.6094C21.8646 13.75 21.9375 13.9219 21.9375 14.125V15.6719C21.9375 16.7448 21.7161 17.6927 21.2734 18.5156C20.8307 19.3385 20.2161 19.9974 19.4297 20.4922C18.6484 20.987 17.7448 21.2839 16.7188 21.3828V22.9844H19.5859C19.7891 22.9844 19.9635 23.0547 20.1094 23.1953C20.2552 23.3411 20.3281 23.5156 20.3281 23.7188C20.3281 23.9167 20.2552 24.0859 20.1094 24.2266C19.9635 24.3724 19.7891 24.4453 19.5859 24.4453H12.4141C12.2109 24.4453 12.0365 24.3724 11.8906 24.2266C11.7448 24.0859 11.6719 23.9167 11.6719 23.7188C11.6719 23.5156 11.7448 23.3411 11.8906 23.1953C12.0365 23.0547 12.2109 22.9844 12.4141 22.9844H15.2812V21.3828C14.2552 21.2839 13.349 20.987 12.5625 20.4922C11.776 19.9974 11.1615 19.3385 10.7188 18.5156C10.276 17.6927 10.0547 16.7448 10.0547 15.6719ZM16 18.4141C15.474 18.4141 15.0026 18.2917 14.5859 18.0469C14.1745 17.7969 13.849 17.4531 13.6094 17.0156C13.3698 16.5781 13.25 16.0703 13.25 15.4922V10.2344C13.25 9.65625 13.3698 9.14844 13.6094 8.71094C13.849 8.27344 14.1745 7.93229 14.5859 7.6875C15.0026 7.4375 15.474 7.3125 16 7.3125C16.526 7.3125 16.9948 7.4375 17.4062 7.6875C17.8229 7.93229 18.1484 8.27344 18.3828 8.71094C18.6224 9.14844 18.7422 9.65625 18.7422 10.2344V15.4922C18.7422 16.0703 18.6224 16.5781 18.3828 17.0156C18.1484 17.4531 17.8229 17.7969 17.4062 18.0469C16.9948 18.2917 16.526 18.4141 16 18.4141Z" fill="#232166"/>
</svg>
